; OM File Header - Saved 2009/06/15 16:37:19
; (6.0011 :patc (om-make-point 36 10) (om-make-point 50 50) (om-make-point 682 477) "" 183 0 nil "2009/06/15 16:37:19")
; End File Header
(in-package :om)(load-lib-for (quote ("OM-SuperVP")))(setf *om-current-persistent* (om-load-patch1 "01-one-treatment" (quote ((om-load-boxcall (quote bastype) "aux1" (quote t) (quote nil) (om-make-point 376 198) (om-make-point 61 28) "out.aiff" "\"out.aiff\"" nil) (om-load-editor-box1 "SOUND1" (quote sound) (quote ((om-load-inputfun (quote input-funbox) "objs" "SELF" nil) (om-load-inputfun (quote input-funbox) "no documentation" "TRACKNUM" 1) (om-load-inputfun (quote input-funbox) "no documentation" "MARKERS" nil))) (om-make-point 197 323) (om-make-point 141 58) (let ((newobj nil)) (load-port-info newobj (quote nil)) (init-mus-color newobj (quote nil)) (set-extra-pairs newobj (quote nil)) (set-patch-pairs newobj (quote nil)) (set-tonalite newobj nil) newobj) nil nil (pairlis (quote (scale microplay approx fontsize staff cmnpref deltapict outport inport zoom notechancolor? grillestep mode winsize winpos palette-mode obj-mode show-stems player)) (list nil nil 2 24 (quote g) (let ((newobj (make-instance (quote edition-values)))) (setf (paper-size newobj) (om-make-point 600 800)) (setf (top-margin newobj) 2) (setf (left-margin newobj) 1) (setf (right-margin newobj) 1) (setf (bottom-margin newobj) 1) (setf (orientation newobj) nil) (setf (scale newobj) nil) (setf (system-space newobj) (quote (1))) (setf (line-space newobj) 1) (setf (title newobj) nil) (setf (show-title? newobj) nil) (setf (show-page? newobj) nil) (setf (sheet-id newobj) nil) (setf (page-mode newobj) nil) newobj) (om-make-point 0 0) 0 0 1 nil 1000 0 (om-make-point 370 280) (om-make-point 40 10) 0 1 (quote t) (quote :midishare))) t nil nil nil) (om-load-editor-box1 "SOUND" (quote sound) (quote ((om-load-inputfun (quote input-funbox) "objs" "SELF" nil) (om-load-inputfun (quote input-funbox) "no documentation" "TRACKNUM" 1) (om-load-inputfun (quote input-funbox) "no documentation" "MARKERS" nil))) (om-make-point 56 144) (om-make-point 104 67) (let ((newobj (let ((thesound (load-sound (make-pathname :directory (quote (:relative "in-files")) :device :unspecific :name "PianoOriginal" :type "aiff") 1))) (when thesound (setf (markers thesound) (quote nil))) thesound))) (load-port-info newobj (quote nil)) (init-mus-color newobj (quote nil)) (set-extra-pairs newobj (quote nil)) (set-patch-pairs newobj (quote nil)) (set-tonalite newobj nil) newobj) "x" nil (pairlis (quote (scale microplay approx fontsize staff cmnpref deltapict outport inport zoom notechancolor? grillestep mode winsize winpos palette-mode obj-mode show-stems player)) (list nil nil 2 24 (quote g) (let ((newobj (make-instance (quote edition-values)))) (setf (paper-size newobj) (om-make-point 600 800)) (setf (top-margin newobj) 2) (setf (left-margin newobj) 1) (setf (right-margin newobj) 1) (setf (bottom-margin newobj) 1) (setf (orientation newobj) nil) (setf (scale newobj) nil) (setf (system-space newobj) (quote (1))) (setf (line-space newobj) 1) (setf (title newobj) nil) (setf (show-title? newobj) nil) (setf (show-page? newobj) nil) (setf (sheet-id newobj) nil) (setf (page-mode newobj) nil) newobj) (om-make-point 0 0) 0 0 1 nil 1000 0 (om-make-point 370 280) (om-make-point 40 10) 0 1 (quote t) (quote :midishare))) t nil nil nil) (om-load-boxcall (quote bastype) "aux" (quote t) (quote nil) (om-make-point 233 99) (om-make-point 20 28) 2 "2" nil) (om-load-boxcall (quote genfun) "SUPERVP-TIMESTRETCH" (quote supervp-timestretch) (quote ((om-load-inputfun (quote input-funbox) "no documentation" "SELF" nil))) (om-make-point 174 149) nil nil nil nil 1) (om-load-boxcall (quote genfun) "SUPERVP-PROCESSING" (quote supervp-processing) (quote ((om-load-inputfun (quote input-funbox) "no documentation" "SRCPATH" nil) (om-load-inputfun (quote input-funbox) "no documentation" "PROCESSINGS" "") (om-load-inputfun (quote input-funbox) "no documentation" "BEGIN" nil) (om-load-inputfun (quote input-funbox) "no documentation" "END" nil) (om-load-inputfun (quote input-funbox) "no documentation" "WINDOWSIZE" 4096) (om-load-inputfun (quote input-funbox) "no documentation" "FFTSIZE" 4096) (om-load-inputfunmenu1 (quote input-funmenu) "no documentation" "WINDOWSTEP-OVERSAMP" 8 (list (list "1/4" 4) (list "1/8" 8) (list "1/16" 16) (list "1/32" 32))) (om-load-inputfunmenu1 (quote input-funmenu) "no documentation" "WINDOW-TYPE" "hanning" (list (list "Blackman" "blackman") (list "Hanning" "hanning") (list "Hamming" "hamming"))) (om-load-inputfunmenu1 (quote input-funmenu) "no documentation" "SHAPE-INVARIANT" nil (list (list "Shape Invariant On" (quote t)) (list "Shape Invariant Off" nil))) (om-load-inputfun (quote input-funbox) "no documentation" "PRESERVE-TRANSIENT" (quote t)) (om-load-inputfunmenu1 (quote input-funmenu) "no documentation" "NORMALIZE" nil (list (list "Normalize On" (quote t)) (list "Normalize Off" nil))) (om-load-inputfun (quote input-funbox) "no documentation" "OUTFILE" "out.aiff"))) (om-make-point 118 241) (om-make-point 283 63) nil nil nil 1) (om-load-boxcomment "comment" (om-make-point 340 36) (quote "Example 1 : Process one treatment.") "" (om-make-point 105 38) nil (om-make-color 0 0 0) (om-make-font "Verdana" 14 :family "Verdana" :style (quote (:bold)) :mode (quote nil))))) (quote ((5 0 1 0 nil 0) (3 0 4 0 nil 0) (2 0 5 0 nil 0) (4 0 5 1 nil 0) (0 0 5 11 nil 0))) (list (let ((newpict (make-instance (quote patch-picture) :name "superVP" :source (quote |OM-SuperVP|) :pict-pathname nil :thepict (om-get-picture "superVP" (quote |OM-SuperVP|)) :storemode :external :extraobjs nil))) (setf (pict-pos newpict) (om-make-point 35 42)) (setf (pict-size newpict) (om-make-point 66 61)) newpict)) 6.0011))
