; OM File Header - Saved 2009/06/15 16:37:19
; (6.0011 :patc (om-make-point 342 70) (om-make-point 668 349) (om-make-point 915 574) "" 183 0 nil "2009/06/15 16:37:19")
; End File Header
(in-package :om)(load-lib-for (quote ("OM-SuperVP")))(setf *om-current-persistent* (om-load-patch1 "06-breakpoint-filter" (quote ((om-load-boxcall (quote bastype) "aux" (quote t) (quote nil) (om-make-point 500 76) (om-make-point 256 30) (list (list 0.1 0 4 100 0 500 -30 1000 -30 4000 0)) "((0.1 0 4 100 0 500 -30 1000 -30 4000 0))" nil) (om-load-boxcall (quote bastype) "aux2" (quote t) (quote nil) (om-make-point 577 287) (om-make-point 71 30) "outx.aiff" "\"outx.aiff\"" nil) (om-load-boxcomment "comment" (om-make-point 187 84) (quote "Second inlet : extrapolation On/Off. When On, supervp applies the treatment outside the time limits defined in the parameters file.") "" (om-make-point 393 216) nil (om-make-color 0 0 0) (om-make-font "Verdana" 12 :family "Verdana" :style (quote (:plain)) :mode (quote nil))) (om-load-boxcall (quote bastype) "aux1" (quote t) (quote nil) (om-make-point 313 135) (om-make-point 91 30) "breakpt.par" "\"breakpt.par\"" nil) (om-load-boxcall (quote bastype) "aux" (quote t) (quote nil) (om-make-point 438 137) (om-make-point 202 56) (list (list 0.0 0 3 0 0 1000 0 1010 -90) (list 2.0 0 3 0 0 1000 0 1010 -90) (list 3 0 3 0 -90 1000 -90 1010 0)) "((0.0 0 3 0 0 1000 0 1010 -90)$(2.0 0 3 0 0 1000 0 1010 -90)$(3  0 3 0 -90 1000  -90  1010 0))" nil) (om-load-boxcall (quote genfun) "SUPERVP-BREAKPOINTFILTER" (quote supervp-breakpointfilter) (quote ((om-load-inputfun (quote input-funbox) "no documentation" "SELF" (list (list 0.1 0 4 100 0 500 -30 1000 -30 4000 0))) (om-load-inputfunmenu1 (quote input-funmenu) "no documentation" "EXTRAPOLATION" nil (list (list "Extrapolation On" (quote t)) (list "Extrapolation Off" nil))))) (om-make-point 248 225) nil nil nil nil 1) (om-load-editor-box1 "SOUND" (quote sound) (quote ((om-load-inputfun (quote input-funbox) "objs" "SELF" nil) (om-load-inputfun (quote input-funbox) "no documentation" "TRACKNUM" 1) (om-load-inputfun (quote input-funbox) "no documentation" "MARKERS" nil))) (om-make-point 248 418) (om-make-point 209 77) (let ((newobj nil)) (load-port-info newobj (quote nil)) (init-mus-color newobj (quote nil)) (set-extra-pairs newobj (quote nil)) (set-patch-pairs newobj (quote nil)) (set-tonalite newobj nil) newobj) nil nil (pairlis (quote (scale microplay approx fontsize staff cmnpref deltapict outport inport zoom notechancolor? grillestep mode winsize winpos palette-mode obj-mode show-stems player)) (list nil nil 2 24 (quote g) (let ((newobj (make-instance (quote edition-values)))) (setf (paper-size newobj) (om-make-point 600 800)) (setf (top-margin newobj) 2) (setf (left-margin newobj) 1) (setf (right-margin newobj) 1) (setf (bottom-margin newobj) 1) (setf (orientation newobj) nil) (setf (scale newobj) nil) (setf (system-space newobj) (quote (1))) (setf (line-space newobj) 1) (setf (title newobj) nil) (setf (show-title? newobj) nil) (setf (show-page? newobj) nil) (setf (sheet-id newobj) nil) (setf (page-mode newobj) nil) newobj) (om-make-point 0 0) 0 0 1 nil 1000 0 (om-make-point 370 280) (om-make-point 40 10) 0 1 (quote t) (quote :midishare))) t nil nil nil) (om-load-editor-box1 "SOUND" (quote sound) (quote ((om-load-inputfun (quote input-funbox) "objs" "SELF" nil) (om-load-inputfun (quote input-funbox) "no documentation" "TRACKNUM" 1) (om-load-inputfun (quote input-funbox) "no documentation" "MARKERS" nil))) (om-make-point 160 207) (om-make-point 80 50) (let ((newobj (let ((thesound (load-sound (make-pathname :directory (quote (:relative "in-files")) :device :unspecific :name "bruitblanc" :type "aif") 1))) (when thesound (setf (markers thesound) (quote nil))) thesound))) (load-port-info newobj (quote nil)) (init-mus-color newobj (quote nil)) (set-extra-pairs newobj (quote nil)) (set-patch-pairs newobj (quote nil)) (set-tonalite newobj nil) newobj) "x" nil (pairlis (quote (scale microplay approx fontsize staff cmnpref deltapict outport inport zoom notechancolor? grillestep mode winsize winpos palette-mode obj-mode show-stems player)) (list nil nil 2 24 (quote g) (let ((newobj (make-instance (quote edition-values)))) (setf (paper-size newobj) (om-make-point 600 800)) (setf (top-margin newobj) 2) (setf (left-margin newobj) 1) (setf (right-margin newobj) 1) (setf (bottom-margin newobj) 1) (setf (orientation newobj) nil) (setf (scale newobj) nil) (setf (system-space newobj) (quote (1))) (setf (line-space newobj) 1) (setf (title newobj) nil) (setf (show-title? newobj) nil) (setf (show-page? newobj) nil) (setf (sheet-id newobj) nil) (setf (page-mode newobj) nil) newobj) (om-make-point 0 0) 0 0 1 nil 1000 0 (om-make-point 747 324) (om-make-point 40 10) 0 1 (quote t) (quote :midishare))) t nil nil nil) (om-load-editor-box1 "TEXTFILE" (quote textfile) (quote ((om-load-inputfun (quote input-funbox) "object or object list" "self" nil) (om-load-inputfun (quote input-funbox) "text to put in the file" "exp-list" nil) (om-load-inputfunmenu1 (quote input-funmenu) "append or supersede mode" "ed-mode" "append" (list (list "append" "append") (list "supersede" "supersede"))) (om-load-inputfunmenu1 (quote input-funmenu) "contents eval mode" "eval-mode" "text" (list (list "text" "text") (list "data list" "data") (list "list" "list"))))) (om-make-point 235 144) (om-make-point 70 50) (load-buffer-textfile (quote ("0.0 0 3 0 0 1000 0 1010 -90" "2.0 0 3 0 0 1000 0 1010 -90" "3  0 3 0 -90 1000  -90  1010 0" "5  0 3 0 0 1000 0 1010 -90" "" "" "")) (quote textfile) "append" "text") "x" nil (pairlis (quote (mode grillestep notechancolor? cmnpref zoom inport outport deltapict winsize winpos palette-mode obj-mode show-stems)) (list 0 1000 nil (let ((newobj (make-instance (quote edition-values)))) (setf (paper-size newobj) (om-make-point 600 800)) (setf (top-margin newobj) 2) (setf (left-margin newobj) 1) (setf (right-margin newobj) 1) (setf (bottom-margin newobj) 1) (setf (orientation newobj) nil) (setf (scale newobj) nil) (setf (system-space newobj) (quote (1))) (setf (line-space newobj) 1) (setf (title newobj) nil) (setf (show-title? newobj) nil) (setf (show-page? newobj) nil) (setf (sheet-id newobj) nil) (setf (page-mode newobj) nil) newobj) 1 0 0 (om-make-point 0 0) (om-make-point 370 280) (om-make-point 40 10) 0 0 (quote t))) nil nil nil nil) (om-load-boxcall (quote genfun) "SUPERVP-PROCESSING" (quote supervp-processing) (quote ((om-load-inputfun (quote input-funbox) "no documentation" "SRCPATH" nil) (om-load-inputfun (quote input-funbox) "no documentation" "PROCESSINGS" "") (om-load-inputfun (quote input-funbox) "no documentation" "BEGIN" nil) (om-load-inputfun (quote input-funbox) "no documentation" "END" nil) (om-load-inputfun (quote input-funbox) "no documentation" "WINDOWSIZE" 4096) (om-load-inputfun (quote input-funbox) "no documentation" "FFTSIZE" 4096) (om-load-inputfunmenu1 (quote input-funmenu) "no documentation" "WINDOWSTEP-OVERSAMP" 8 (list (list "1/4" 4) (list "1/8" 8) (list "1/16" 16) (list "1/32" 32))) (om-load-inputfunmenu1 (quote input-funmenu) "no documentation" "WINDOW-TYPE" "hanning" (list (list "Blackman" "blackman") (list "Hanning" "hanning") (list "Hamming" "hamming"))) (om-load-inputfunmenu1 (quote input-funmenu) "no documentation" "SHAPE-INVARIANT" nil (list (list "Shape Invariant On" (quote t)) (list "Shape Invariant Off" nil))) (om-load-inputfun (quote input-funbox) "no documentation" "PRESERVE-TRANSIENT" (quote t)) (om-load-inputfunmenu1 (quote input-funmenu) "no documentation" "NORMALIZE" nil (list (list "Normalize On" (quote t)) (list "Normalize Off" nil))) (om-load-inputfun (quote input-funbox) "no documentation" "OUTFILE" "out.aiff"))) (om-make-point 227 328) (om-make-point 269 63) nil nil nil 1) (om-load-boxcomment "comment" (om-make-point 188 36) (quote "06. Breakpoint filter") "" (om-make-point 91 42) nil (om-make-color 0 0 0) (om-make-font "Verdana" 14 :family "Verdana" :style (quote (:bold)) :mode (quote nil))))) (quote ((8 0 5 0 nil 0) (9 0 6 0 nil 0) (7 0 9 0 nil 0) (5 0 9 1 nil 0) (1 0 9 11 nil 0))) (list (let ((newpict (make-instance (quote patch-picture) :name "superVP" :source (quote |OM-SuperVP|) :pict-pathname nil :thepict (om-get-picture "superVP" (quote |OM-SuperVP|)) :storemode :external :extraobjs nil))) (setf (pict-pos newpict) (om-make-point 22 42)) (setf (pict-size newpict) (om-make-point 63 57)) newpict)) 6.0011))
