; OM File Header - Saved 2009/06/15 16:37:19
; (6.0011 :patc (om-make-point 38 130) (om-make-point 50 50) (om-make-point 832 567) "" 183 0 nil "2009/06/15 16:37:19")
; End File Header
(in-package :om)(load-lib-for (quote ("OM-SuperVP")))(setf *om-current-persistent* (om-load-patch1 "07-formant-filter" (quote ((om-load-boxcall (quote bastype) "aux1" (quote t) (quote nil) (om-make-point 377 298) (om-make-point 64 30) "out.aiff" "\"out.aiff\"" nil) (om-load-boxcomment "comment1" (om-make-point 187 84) (quote "Second inlet : interpolation On/Off. When On supervp performs a morphing between the formants filters defined in the parameters file.") "" (om-make-point 277 106) nil (om-make-color 0 0 0) (om-make-font "Verdana" 12 :family "Verdana" :style (quote (:plain)) :mode (quote nil))) (om-load-boxcomment "comment1" (om-make-point 187 84) (quote "Third inlet : extrapolation On/Off. When On, supervp applies the treatment outside the time limits defined in the parameters file.") "" (om-make-point 463 159) nil (om-make-color 0 0 0) (om-make-font "Verdana" 12 :family "Verdana" :style (quote (:plain)) :mode (quote nil))) (om-load-boxcall (quote bastype) "aux" (quote t) (quote nil) (om-make-point 89 115) (om-make-point 179 30) (list (list 0 2 350 0 50 1700 -5 100)) "((0 2 350 0 50 1700 -5 100))" nil) (om-load-boxcall (quote genfun) "SUPERVP-FORMANTFILTER" (quote supervp-formantfilter) (quote ((om-load-inputfun (quote input-funbox) "no documentation" "SELF" (list (list 0 2 350 0 50 1700 -5 100))) (om-load-inputfunmenu1 (quote input-funmenu) "no documentation" "INTERPOLATION" (quote t) (list (list "Interpolation On" (quote t)) (list "Interpolation Off" nil))) (om-load-inputfunmenu1 (quote input-funmenu) "no documentation" "EXTRAPOLATION" (quote t) (list (list "Extrapolation On" (quote t)) (list "Extrapolation Off" nil))))) (om-make-point 155 227) (om-make-point 133 59) nil nil nil 1) (om-load-editor-box1 "SOUND" (quote sound) (quote ((om-load-inputfun (quote input-funbox) "objs" "SELF" nil) (om-load-inputfun (quote input-funbox) "no documentation" "TRACKNUM" 1) (om-load-inputfun (quote input-funbox) "no documentation" "MARKERS" nil))) (om-make-point 127 414) (om-make-point 250 59) (let ((newobj nil)) (load-port-info newobj (quote nil)) (init-mus-color newobj (quote nil)) (set-extra-pairs newobj (quote nil)) (set-patch-pairs newobj (quote nil)) (set-tonalite newobj nil) newobj) nil nil (pairlis (quote (scale microplay show-stems obj-mode palette-mode winpos winsize mode grillestep notechancolor? zoom inport outport deltapict cmnpref staff fontsize approx player)) (list nil nil (quote t) 1 0 (om-make-point 40 10) (om-make-point 370 280) 0 1000 nil 1 0 0 (om-make-point 0 0) (let ((newobj (make-instance (quote edition-values)))) (setf (paper-size newobj) (om-make-point 600 800)) (setf (top-margin newobj) 2) (setf (left-margin newobj) 1) (setf (right-margin newobj) 1) (setf (bottom-margin newobj) 1) (setf (orientation newobj) nil) (setf (scale newobj) nil) (setf (system-space newobj) (quote (1))) (setf (line-space newobj) 1) (setf (title newobj) nil) (setf (show-title? newobj) nil) (setf (show-page? newobj) nil) (setf (sheet-id newobj) nil) (setf (page-mode newobj) nil) newobj) (quote g) 24 2 (quote :midishare))) t nil nil nil) (om-load-editor-box1 "SOUND" (quote sound) (quote ((om-load-inputfun (quote input-funbox) "objs" "SELF" nil) (om-load-inputfun (quote input-funbox) "no documentation" "TRACKNUM" 1) (om-load-inputfun (quote input-funbox) "no documentation" "MARKERS" nil))) (om-make-point 39 225) (om-make-point 80 50) (let ((newobj (let ((thesound (load-sound (make-pathname :directory (quote (:relative "in-files")) :device :unspecific :name "bruitblanc" :type "aif") 1))) (when thesound (setf (markers thesound) (quote nil))) thesound))) (load-port-info newobj (quote nil)) (init-mus-color newobj (quote nil)) (set-extra-pairs newobj (quote nil)) (set-patch-pairs newobj (quote nil)) (set-tonalite newobj nil) newobj) "x" nil (pairlis (quote (scale microplay show-stems obj-mode palette-mode winpos winsize mode grillestep notechancolor? zoom inport outport deltapict cmnpref staff fontsize approx player)) (list nil nil (quote t) 1 0 (om-make-point 40 10) (om-make-point 370 280) 0 1000 nil 1 0 0 (om-make-point 0 0) (let ((newobj (make-instance (quote edition-values)))) (setf (paper-size newobj) (om-make-point 600 800)) (setf (top-margin newobj) 2) (setf (left-margin newobj) 1) (setf (right-margin newobj) 1) (setf (bottom-margin newobj) 1) (setf (orientation newobj) nil) (setf (scale newobj) nil) (setf (system-space newobj) (quote (1))) (setf (line-space newobj) 1) (setf (title newobj) nil) (setf (show-title? newobj) nil) (setf (show-page? newobj) nil) (setf (sheet-id newobj) nil) (setf (page-mode newobj) nil) newobj) (quote g) 24 2 (quote :midishare))) t nil nil nil) (om-load-editor-box1 "TEXTFILE" (quote textfile) (quote ((om-load-inputfun (quote input-funbox) "object or object list" "self" nil) (om-load-inputfun (quote input-funbox) "text to put in the file" "exp-list" nil) (om-load-inputfunmenu1 (quote input-funmenu) "append or supersede mode" "ed-mode" "append" (list (list "append" "append") (list "supersede" "supersede"))) (om-load-inputfunmenu1 (quote input-funmenu) "contents eval mode" "eval-mode" "text" (list (list "text" "text") (list "data list" "data") (list "list" "list"))))) (om-make-point 91 140) (om-make-point 70 50) (load-buffer-textfile (quote ("0 5 350 0 50 1700 -5 100 2700 -10 120 3700 -10 150 4950 -15 200" "2 5 350 0 50 1700 -5 100 2700 -10 120 3700 -10 150 4950 -15 200" "4 5 660 0 80 1120 -5 90 2750 -10 120 3000 -15 130 3350 -20 140" "6 5 660 0 80 1120 -5 90 2750 -10 120 3000 -15 130 3350 -20 140" "8 5 450 0 70 800 -5 80 2830 -8 100 3500 -14 100 4950 -25 135" "10 5 450 0 70 800 -5 80 2830 -8 100 3500 -14 100 4950 -25 135" "" "" "")) (quote textfile) "append" "text") "x" nil (pairlis (quote (show-stems obj-mode palette-mode winpos winsize deltapict outport inport zoom cmnpref notechancolor? grillestep mode)) (list (quote t) 0 0 (om-make-point 40 10) (om-make-point 370 280) (om-make-point 0 0) 0 0 1 (let ((newobj (make-instance (quote edition-values)))) (setf (paper-size newobj) (om-make-point 600 800)) (setf (top-margin newobj) 2) (setf (left-margin newobj) 1) (setf (right-margin newobj) 1) (setf (bottom-margin newobj) 1) (setf (orientation newobj) nil) (setf (scale newobj) nil) (setf (system-space newobj) (quote (1))) (setf (line-space newobj) 1) (setf (title newobj) nil) (setf (show-title? newobj) nil) (setf (show-page? newobj) nil) (setf (sheet-id newobj) nil) (setf (page-mode newobj) nil) newobj) nil 1000 0)) nil nil nil nil) (om-load-boxcall (quote genfun) "SUPERVP-PROCESSING" (quote supervp-processing) (quote ((om-load-inputfun (quote input-funbox) "no documentation" "SRCPATH" nil) (om-load-inputfun (quote input-funbox) "no documentation" "PROCESSINGS" "") (om-load-inputfun (quote input-funbox) "no documentation" "BEGIN" nil) (om-load-inputfun (quote input-funbox) "no documentation" "END" nil) (om-load-inputfun (quote input-funbox) "no documentation" "WINDOWSIZE" 4096) (om-load-inputfun (quote input-funbox) "no documentation" "FFTSIZE" 4096) (om-load-inputfunmenu1 (quote input-funmenu) "no documentation" "WINDOWSTEP-OVERSAMP" 8 (list (list "1/4" 4) (list "1/8" 8) (list "1/16" 16) (list "1/32" 32))) (om-load-inputfunmenu1 (quote input-funmenu) "no documentation" "WINDOW-TYPE" "hanning" (list (list "Blackman" "blackman") (list "Hanning" "hanning") (list "Hamming" "hamming"))) (om-load-inputfunmenu1 (quote input-funmenu) "no documentation" "SHAPE-INVARIANT" nil (list (list "Shape Invariant On" (quote t)) (list "Shape Invariant Off" nil))) (om-load-inputfun (quote input-funbox) "no documentation" "PRESERVE-TRANSIENT" (quote t)) (om-load-inputfunmenu1 (quote input-funmenu) "no documentation" "NORMALIZE" (quote t) (list (list "Normalize On" (quote t)) (list "Normalize Off" nil))) (om-load-inputfun (quote input-funbox) "no documentation" "OUTFILE" "out.aiff"))) (om-make-point 129 328) (om-make-point 269 63) nil nil nil 1) (om-load-boxcomment "comment" (om-make-point 188 36) (quote "07. Formant Filter") "" (om-make-point 91 40) nil (om-make-color 0 0 0) (om-make-font "Verdana" 14 :family "Verdana" :style (quote (:bold)) :mode (quote nil))))) (quote ((3 0 4 0 nil 0) (8 0 5 0 nil 0) (6 0 8 0 nil 0) (4 0 8 1 nil 0) (0 0 8 11 nil 0))) (list (let ((newpict (make-instance (quote patch-picture) :name "superVP" :source (quote |OM-SuperVP|) :pict-pathname nil :thepict (om-get-picture "superVP" (quote |OM-SuperVP|)) :storemode :external :extraobjs nil))) (setf (pict-pos newpict) (om-make-point 22 42)) (setf (pict-size newpict) (om-make-point 63 57)) newpict)) 6.0011))
