; OM File Header - Saved 2009/06/15 16:37:19
; (6.0011 :patc (om-make-point 203 130) (om-make-point 50 50) (om-make-point 838 570) "" 183 0 nil "2009/06/15 16:37:19")
; End File Header
(in-package :om)(load-lib-for (quote ("OM-SuperVP")))(setf *om-current-persistent* (om-load-patch1 "08-band-filter" (quote ((om-load-boxcomment "comment1" (om-make-point 187 84) (quote "Second inlet : extrapolation On/Off. When On, supervp applies the treatment outside the time limits defined in the parameters file.") "" (om-make-point 322 144) nil (om-make-color 0 0 0) (om-make-font "Verdana" 12 :family "Verdana" :style (quote (:plain)) :mode (quote nil))) (om-load-boxcall (quote bastype) "aux" (quote t) (quote nil) (om-make-point 196 81) (om-make-point 120 30) (list (list 0 2 0 350 1000)) "((0 2 0 350 1000))" nil) (om-load-boxcall (quote genfun) "SUPERVP-BANDFILTER" (quote supervp-bandfilter) (quote ((om-load-inputfun (quote input-funbox) "no documentation" "SELF" (list (list 0 2 350 500))) (om-load-inputfunmenu1 (quote input-funmenu) "no documentation" "EXTRAPOLATION" (quote t) (list (list "Extrapolation On" (quote t)) (list "Extrapolation Off" nil))))) (om-make-point 196 173) nil nil nil nil 1) (om-load-editor-box1 "SOUND" (quote sound) (quote ((om-load-inputfun (quote input-funbox) "objs" "SELF" nil) (om-load-inputfun (quote input-funbox) "no documentation" "TRACKNUM" 1) (om-load-inputfun (quote input-funbox) "no documentation" "MARKERS" nil))) (om-make-point 152 392) (om-make-point 226 74) (let ((newobj nil)) (load-port-info newobj (quote nil)) (init-mus-color newobj (quote nil)) (set-extra-pairs newobj (quote nil)) (set-patch-pairs newobj (quote nil)) (set-tonalite newobj nil) newobj) nil nil (pairlis (quote (scale microplay approx fontsize staff cmnpref deltapict outport inport zoom notechancolor? grillestep mode winsize winpos palette-mode obj-mode show-stems player)) (list nil nil 2 24 (quote g) (let ((newobj (make-instance (quote edition-values)))) (setf (paper-size newobj) (om-make-point 600 800)) (setf (top-margin newobj) 2) (setf (left-margin newobj) 1) (setf (right-margin newobj) 1) (setf (bottom-margin newobj) 1) (setf (orientation newobj) nil) (setf (scale newobj) nil) (setf (system-space newobj) (quote (1))) (setf (line-space newobj) 1) (setf (title newobj) nil) (setf (show-title? newobj) nil) (setf (show-page? newobj) nil) (setf (sheet-id newobj) nil) (setf (page-mode newobj) nil) newobj) (om-make-point 0 0) 0 0 1 nil 1000 0 (om-make-point 370 280) (om-make-point 40 10) 0 1 (quote t) (quote :midishare))) t nil nil nil) (om-load-editor-box1 "SOUND" (quote sound) (quote ((om-load-inputfun (quote input-funbox) "objs" "SELF" nil) (om-load-inputfun (quote input-funbox) "no documentation" "TRACKNUM" 1) (om-load-inputfun (quote input-funbox) "no documentation" "MARKERS" nil))) (om-make-point 84 188) (om-make-point 80 50) (let ((newobj (let ((thesound (load-sound (make-pathname :directory (quote (:relative "in-files")) :device :unspecific :name "bruitblanc" :type "aif") 1))) (when thesound (setf (markers thesound) (quote nil))) thesound))) (load-port-info newobj (quote nil)) (init-mus-color newobj (quote nil)) (set-extra-pairs newobj (quote nil)) (set-patch-pairs newobj (quote nil)) (set-tonalite newobj nil) newobj) "x" nil (pairlis (quote (scale microplay approx fontsize staff cmnpref deltapict outport inport zoom notechancolor? grillestep mode winsize winpos palette-mode obj-mode show-stems player)) (list nil nil 2 24 (quote g) (let ((newobj (make-instance (quote edition-values)))) (setf (paper-size newobj) (om-make-point 600 800)) (setf (top-margin newobj) 2) (setf (left-margin newobj) 1) (setf (right-margin newobj) 1) (setf (bottom-margin newobj) 1) (setf (orientation newobj) nil) (setf (scale newobj) nil) (setf (system-space newobj) (quote (1))) (setf (line-space newobj) 1) (setf (title newobj) nil) (setf (show-title? newobj) nil) (setf (show-page? newobj) nil) (setf (sheet-id newobj) nil) (setf (page-mode newobj) nil) newobj) (om-make-point 0 0) 0 0 1 nil 1000 0 (om-make-point 370 280) (om-make-point 40 10) 0 1 (quote t) (quote :midishare))) t nil nil nil) (om-load-editor-box1 "TEXTFILE" (quote textfile) (quote ((om-load-inputfun (quote input-funbox) "object or object list" "self" nil) (om-load-inputfun (quote input-funbox) "text to put in the file" "exp-list" nil) (om-load-inputfunmenu1 (quote input-funmenu) "append or supersede mode" "ed-mode" "append" (list (list "append" "append") (list "supersede" "supersede"))) (om-load-inputfunmenu1 (quote input-funmenu) "contents eval mode" "eval-mode" "text" (list (list "text" "text") (list "data list" "data") (list "list" "list"))))) (om-make-point 143 114) (om-make-point 70 50) (load-buffer-textfile (quote ("0.0 2 0 50 200 " "2.0 2 0 50 200 " "6   2 0 500 3000 " "9   2 0 50 200 " "" "" "")) (quote textfile) "append" "text") "x" nil (pairlis (quote (mode grillestep notechancolor? cmnpref zoom inport outport deltapict winsize winpos palette-mode obj-mode show-stems)) (list 0 1000 nil (let ((newobj (make-instance (quote edition-values)))) (setf (paper-size newobj) (om-make-point 600 800)) (setf (top-margin newobj) 2) (setf (left-margin newobj) 1) (setf (right-margin newobj) 1) (setf (bottom-margin newobj) 1) (setf (orientation newobj) nil) (setf (scale newobj) nil) (setf (system-space newobj) (quote (1))) (setf (line-space newobj) 1) (setf (title newobj) nil) (setf (show-title? newobj) nil) (setf (show-page? newobj) nil) (setf (sheet-id newobj) nil) (setf (page-mode newobj) nil) newobj) 1 0 0 (om-make-point 0 0) (om-make-point 370 280) (om-make-point 40 10) 0 0 (quote t))) nil nil nil nil) (om-load-boxcall (quote genfun) "SUPERVP-PROCESSING" (quote supervp-processing) (quote ((om-load-inputfun (quote input-funbox) "no documentation" "SRCPATH" nil) (om-load-inputfun (quote input-funbox) "no documentation" "PROCESSINGS" "") (om-load-inputfun (quote input-funbox) "no documentation" "BEGIN" nil) (om-load-inputfun (quote input-funbox) "no documentation" "END" nil) (om-load-inputfun (quote input-funbox) "no documentation" "WINDOWSIZE" 4096) (om-load-inputfun (quote input-funbox) "no documentation" "FFTSIZE" 4096) (om-load-inputfunmenu1 (quote input-funmenu) "no documentation" "WINDOWSTEP-OVERSAMP" 8 (list (list "1/4" 4) (list "1/8" 8) (list "1/16" 16) (list "1/32" 32))) (om-load-inputfunmenu1 (quote input-funmenu) "no documentation" "WINDOW-TYPE" "hanning" (list (list "Blackman" "blackman") (list "Hanning" "hanning") (list "Hamming" "hamming"))) (om-load-inputfunmenu1 (quote input-funmenu) "no documentation" "SHAPE-INVARIANT" nil (list (list "Shape Invariant On" (quote t)) (list "Shape Invariant Off" nil))) (om-load-inputfun (quote input-funbox) "no documentation" "PRESERVE-TRANSIENT" (quote t)) (om-load-inputfunmenu1 (quote input-funmenu) "no documentation" "NORMALIZE" nil (list (list "Normalize On" (quote t)) (list "Normalize Off" nil))) (om-load-inputfun (quote input-funbox) "no documentation" "OUTFILE" "out.aiff"))) (om-make-point 144 318) (om-make-point 269 63) nil nil nil 1) (om-load-boxcomment "comment" (om-make-point 188 36) (quote "08. Band Filter") "" (om-make-point 90 37) nil (om-make-color 0 0 0) (om-make-font "Verdana" 14 :family "Verdana" :style (quote (:bold)) :mode (quote nil))))) (quote ((1 0 2 0 nil 0) (6 0 3 0 nil 0) (4 0 6 0 nil 0) (2 0 6 1 nil 0))) (list (let ((newpict (make-instance (quote patch-picture) :name "superVP" :source (quote |OM-SuperVP|) :pict-pathname nil :thepict (om-get-picture "superVP" (quote |OM-SuperVP|)) :storemode :external :extraobjs nil))) (setf (pict-pos newpict) (om-make-point 23 45)) (setf (pict-size newpict) (om-make-point 63 57)) newpict)) 6.0011))
