; OM File Header - Saved 2010/10/26 16:27:48
; (6.030002 :patc (om-make-point 58 190) (om-make-point 50 50) (om-make-point 741 549) "" 183 0 nil "2010/10/26 16:27:48")
; End File Header
; External resources 
; (list (list (quote :picture) "../../../../../../OM-SRC/OPENMUSIC/libraries/OM-SuperVP 2.5/resources/pict/superVP") (list (quote :sound) "../../../../../../WORKSPACES/GLOBAL-INFILES/PianoOriginal.aiff"))
(in-package :om)(load-lib-for (quote ("OM-SuperVP")))(setf *om-current-persistent* (om-load-patch1 "11-gain" (quote ((om-load-boxcomment "comment" (om-make-point 177 42) (quote "Apply a gain or enveloppe on an input sound") nil (om-make-point 456 87) nil (om-make-color 0 0 0) (om-make-font "Verdana" 12 :family "Verdana" :style (quote (:plain)) :mode (quote nil))) (om-load-boxcall (quote genfun) "SUPERVP-GAIN" (quote supervp-gain) (quote ((om-load-inputfun (quote input-funbox) "no documentation" "SELF" nil))) (om-make-point 247 156) nil nil nil nil 1) (om-load-editor-box1 "BPF" (quote bpf) (quote ((om-load-inputfun (quote input-funbox) "object" "SELF" nil) (om-load-inputfun (quote input-funbox) "X coordinates (list)" "X-POINTS" (list 0 100)) (om-load-inputfun (quote input-funbox) "Y coordinates (list)" "Y-POINTS" (list 0 100)) (om-load-inputfun (quote input-funbox) "precision (integer)" "DECIMALS" 0))) (om-make-point 258 73) (om-make-point 164 70) (let ((newobj (when (find-class (quote bpf) nil) (let ((newbpf (simple-bpf-from-list (quote (0.0 0.26321 0.43411 1.31836 1.33472 2.9938)) (quote (0.0 1.60097 0.29553 1.92458 0.29392 1.40433)) (quote bpf) 5))) (setf (bpfcolor newbpf) (om-make-color 0 0 0)) (set-name newbpf nil) newbpf)))) newobj) "x" nil (pairlis (quote (winsize winpos picture)) (list (om-make-point 946 395) (om-make-point 10 40) nil)) t nil nil nil) (om-load-boxcall (quote bastype) "aux" (quote t) (quote nil) (om-make-point 446 223) (om-make-point 118 30) "out-svp-gain.aiff" "\"out-svp-gain.aiff\"" nil) (om-load-editor-box1 "out-svp-gain.aiff" (quote sound) (quote ((om-load-inputfun (quote input-funbox) "objs" "SELF" nil) (om-load-inputfun (quote input-funbox) "no documentation" "TRACKNUM" 1) (om-load-inputfun (quote input-funbox) "no documentation" "MARKERS" nil))) (om-make-point 245 353) (om-make-point 184 58) (let ((newobj nil)) (load-port-info newobj (quote nil)) (init-mus-color newobj (quote nil)) (set-extra-pairs newobj (quote nil)) (set-patch-pairs newobj (quote nil)) (set-name newobj nil) (set-tonalite newobj nil) newobj) nil nil (pairlis (quote (scale microplay show-stems obj-mode palette-mode winpos winsize mode grillestep notechancolor? zoom inport outport deltapict cmnpref staff fontsize approx player)) (list nil nil (quote t) 1 0 (om-make-point 40 10) (om-make-point 370 280) 0 1000 nil 1 0 0 (om-make-point 0 0) (let ((newobj (make-instance (quote edition-values)))) (setf (paper-size newobj) (om-make-point 600 800)) (setf (top-margin newobj) 2) (setf (left-margin newobj) 1) (setf (right-margin newobj) 1) (setf (bottom-margin newobj) 1) (setf (orientation newobj) nil) (setf (scale newobj) nil) (setf (system-space newobj) (quote (1))) (setf (system-color newobj) (quote nil)) (setf (line-space newobj) 1) (setf (title newobj) nil) (setf (show-title? newobj) nil) (setf (show-page? newobj) nil) (setf (sheet-id newobj) nil) (setf (page-mode newobj) nil) newobj) (quote g) 24 2 (quote :midishare))) t nil nil nil) (om-load-editor-box1 "SOUND" (quote sound) (quote ((om-load-inputfun (quote input-funbox) "objs" "SELF" nil) (om-load-inputfun (quote input-funbox) "no documentation" "TRACKNUM" 1) (om-load-inputfun (quote input-funbox) "no documentation" "MARKERS" nil))) (om-make-point 72 155) (om-make-point 120 73) (let ((newobj (let ((thesound (load-sound (om-make-pathname :directory (quote (:absolute "Users" "bresson" "WORKSPACES" "GLOBAL-INFILES")) :device nil :host nil :name "PianoOriginal" :type "aiff") 1))) (when thesound (setf (markers thesound) (quote nil))) thesound))) (load-port-info newobj (quote nil)) (init-mus-color newobj (quote nil)) (set-extra-pairs newobj (quote nil)) (set-patch-pairs newobj (quote nil)) (set-name newobj "PianoOriginal.aiff") (set-tonalite newobj nil) newobj) "x" nil (pairlis (quote (scale microplay show-stems obj-mode palette-mode winpos winsize mode grillestep notechancolor? zoom inport outport deltapict cmnpref staff fontsize approx player)) (list nil nil (quote t) 1 0 (om-make-point 40 10) (om-make-point 370 280) 0 1000 nil 1 0 0 (om-make-point 0 0) (let ((newobj (make-instance (quote edition-values)))) (setf (paper-size newobj) (om-make-point 600 800)) (setf (top-margin newobj) 2) (setf (left-margin newobj) 1) (setf (right-margin newobj) 1) (setf (bottom-margin newobj) 1) (setf (orientation newobj) nil) (setf (scale newobj) nil) (setf (system-space newobj) (quote (1))) (setf (system-color newobj) (quote nil)) (setf (line-space newobj) 1) (setf (title newobj) nil) (setf (show-title? newobj) nil) (setf (show-page? newobj) nil) (setf (sheet-id newobj) nil) (setf (page-mode newobj) nil) newobj) (quote g) 24 2 (quote :midishare))) t nil nil nil) (om-load-boxcall (quote genfun) "SUPERVP-PROCESSING" (quote supervp-processing) (quote ((om-load-inputfun (quote input-funbox) "no documentation" "SRCPATH" nil) (om-load-inputfun (quote input-funbox) "no documentation" "PROCESSINGS" "") (om-load-inputfun (quote input-funbox) "no documentation" "BEGIN" nil) (om-load-inputfun (quote input-funbox) "no documentation" "END" nil) (om-load-inputfun (quote input-funbox) "no documentation" "WINDOWSIZE" 4096) (om-load-inputfun (quote input-funbox) "no documentation" "FFTSIZE" 4096) (om-load-inputfunmenu1 (quote input-funmenu) "no documentation" "WINDOWSTEP-OVERSAMP" 8 (list (list "1/4" 4) (list "1/8" 8) (list "1/16" 16) (list "1/32" 32))) (om-load-inputfunmenu1 (quote input-funmenu) "no documentation" "WINDOW-TYPE" "hanning" (list (list "Blackman" "blackman") (list "Hanning" "hanning") (list "Hamming" "hamming"))) (om-load-inputfunmenu1 (quote input-funmenu) "no documentation" "SHAPE-INVARIANT" nil (list (list "Shape Invariant On" (quote t)) (list "Shape Invariant Off" nil))) (om-load-inputfun (quote input-funbox) "no documentation" "PRESERVE-TRANSIENT" (quote t)) (om-load-inputfunmenu1 (quote input-funmenu) "no documentation" "NORMALIZE" nil (list (list "Normalize On" (quote t)) (list "Normalize Off" nil))) (om-load-inputfun (quote input-funbox) "no documentation" "OUTFILE" "out.aiff"))) (om-make-point 208 262) (om-make-point 269 63) nil nil nil 1) (om-load-boxcomment "comment" (om-make-point 188 36) (quote "11. Gain") "" (om-make-point 89 37) nil (om-make-color 0 0 0) (om-make-font "Verdana" 14 :family "Verdana" :style (quote (:bold)) :mode (quote nil))))) (quote ((2 0 1 0 nil 0) (6 0 4 0 nil 0) (5 0 6 0 nil 0) (1 0 6 1 nil 0) (3 0 6 11 nil 0))) (list (let ((newpict (make-instance (quote patch-picture) :name "superVP" :source (quote |OM-SuperVP|) :pict-pathname (restore-pict-path (restore-path nil)) :thepict (om-get-picture "superVP" (quote |OM-SuperVP|)) :storemode :external :draw-params (quote (c 0 0 100 100)) :extraobjs nil))) (setf (pict-pos newpict) (om-make-point 22 42)) (setf (pict-size newpict) (om-make-point 63 57)) newpict)) 6.030002))