; OM File Header - Saved 2009/06/15 16:37:19
; (6.0011 :patc (om-make-point 104 31) (om-make-point 50 50) (om-make-point 503 487) "" 183 0 nil "2009/06/15 16:37:19")
; End File Header
(in-package :om)(load-lib-for (quote ("OM-SuperVP")))(setf *om-current-persistent* (om-load-patch1 "1-source-filt-synth" (quote ((om-load-boxcall (quote bastype) "aux1" (quote t) (quote nil) (om-make-point 327 221) (om-make-point 53 29) "Out.aif" "\"Out.aif\"" nil) (om-load-boxcomment "comment" (om-make-point 289 44) (quote "1- Source/Filter Cross Synthesis") "" (om-make-point 119 41) nil (om-make-color 0 0 0) (om-make-font "Verdana" 14 :family "Verdana" :style (quote (:bold)) :mode (quote nil))) (om-load-editor-box1 "SOUND2" (quote sound) (quote ((om-load-inputfun (quote input-funbox) "objs" "SELF" nil) (om-load-inputfun (quote input-funbox) "no documentation" "TRACKNUM" 1) (om-load-inputfun (quote input-funbox) "no documentation" "MARKERS" nil))) (om-make-point 143 163) (om-make-point 78 53) (let ((newobj (let ((thesound (load-sound (make-pathname :directory (quote (:relative "in-files")) :device :unspecific :name "voix-6NV0033" :type "aif") 1))) (when thesound (setf (markers thesound) (quote nil))) thesound))) (load-port-info newobj (quote nil)) (init-mus-color newobj (quote nil)) (set-extra-pairs newobj (quote nil)) (set-patch-pairs newobj (quote nil)) (set-tonalite newobj nil) newobj) "x" nil (pairlis (quote (scale microplay approx fontsize staff cmnpref deltapict outport inport zoom notechancolor? grillestep mode winsize winpos palette-mode obj-mode show-stems player)) (list nil nil 2 24 (quote g) (let ((newobj (make-instance (quote edition-values)))) (setf (paper-size newobj) (om-make-point 600 800)) (setf (top-margin newobj) 2) (setf (left-margin newobj) 1) (setf (right-margin newobj) 1) (setf (bottom-margin newobj) 1) (setf (orientation newobj) nil) (setf (scale newobj) nil) (setf (system-space newobj) (quote (1))) (setf (line-space newobj) 1) (setf (title newobj) nil) (setf (show-title? newobj) nil) (setf (show-page? newobj) nil) (setf (sheet-id newobj) nil) (setf (page-mode newobj) nil) newobj) (om-make-point 0 0) 0 0 1 nil 1000 0 (om-make-point 370 280) (om-make-point 40 10) 0 1 (quote t) (quote :midishare))) t nil nil nil) (om-load-editor-box1 "SOUND2" (quote sound) (quote ((om-load-inputfun (quote input-funbox) "objs" "SELF" nil) (om-load-inputfun (quote input-funbox) "no documentation" "TRACKNUM" 1) (om-load-inputfun (quote input-funbox) "no documentation" "MARKERS" nil))) (om-make-point 51 163) (om-make-point 77 52) (let ((newobj (let ((thesound (load-sound (make-pathname :directory (quote (:relative "in-files")) :device :unspecific :name "bruitblanc" :type "aif") 1))) (when thesound (setf (markers thesound) (quote nil))) thesound))) (load-port-info newobj (quote nil)) (init-mus-color newobj (quote nil)) (set-extra-pairs newobj (quote nil)) (set-patch-pairs newobj (quote nil)) (set-tonalite newobj nil) newobj) "x" nil (pairlis (quote (scale microplay approx fontsize staff cmnpref deltapict outport inport zoom notechancolor? grillestep mode winsize winpos palette-mode obj-mode show-stems player)) (list nil nil 2 24 (quote g) (let ((newobj (make-instance (quote edition-values)))) (setf (paper-size newobj) (om-make-point 600 800)) (setf (top-margin newobj) 2) (setf (left-margin newobj) 1) (setf (right-margin newobj) 1) (setf (bottom-margin newobj) 1) (setf (orientation newobj) nil) (setf (scale newobj) nil) (setf (system-space newobj) (quote (1))) (setf (line-space newobj) 1) (setf (title newobj) nil) (setf (show-title? newobj) nil) (setf (show-page? newobj) nil) (setf (sheet-id newobj) nil) (setf (page-mode newobj) nil) newobj) (om-make-point 0 0) 0 0 1 nil 1000 0 (om-make-point 742 324) (om-make-point 40 10) 0 1 (quote t) (quote :midishare))) t nil nil nil) (om-load-boxcall (quote genfun) "SUPERVP-SOURCEFILTER-SYNTHESIS" (quote supervp-sourcefilter-synthesis) (quote ((om-load-inputfun (quote input-funbox) "no documentation" "SRCPATH" nil) (om-load-inputfun (quote input-funbox) "no documentation" "SRCPATH2" nil) (om-load-inputfun (quote input-funbox) "no documentation" "WINDOWSIZE" 4096) (om-load-inputfun (quote input-funbox) "no documentation" "FFTSIZE" 4096) (om-load-inputfunmenu1 (quote input-funmenu) "no documentation" "WINDOWSTEP-OVERSAMP" 8 (list (list "1/4" 4) (list "1/8" 8) (list "1/16" 16) (list "1/32" 32))) (om-load-inputfunmenu1 (quote input-funmenu) "no documentation" "WINDOW-TYPE" "hanning" (list (list "Blackman" "blackman") (list "Hanning" "hanning") (list "Hamming" "hamming"))) (om-load-inputfunmenu1 (quote input-funmenu) "no documentation" "NORMALIZE" (quote t) (list (list "Normalize On" (quote t)) (list "Normalize Off" nil))) (om-load-inputfunmenu1 (quote input-funmenu) "no documentation" "CROSSMODE" 1 (list (list "Amplitude+Phase" 0) (list "Amplitude" 1) (list "Phase" 2))) (om-load-inputfunmenu1 (quote input-funmenu) "no documentation" "SPECTENV-TYPE" (quote t) (list (list "LPC" (quote t)) (list "True Enveloppe" nil))) (om-load-inputfun (quote input-funbox) "no documentation" "OUTFILE" "out.aiff"))) (om-make-point 113 254) (om-make-point 264 63) nil nil nil 1) (om-load-editor-box1 "SOUND1" (quote sound) (quote ((om-load-inputfun (quote input-funbox) "objs" "SELF" nil) (om-load-inputfun (quote input-funbox) "no documentation" "TRACKNUM" 1) (om-load-inputfun (quote input-funbox) "no documentation" "MARKERS" nil))) (om-make-point 151 329) (om-make-point 230 65) (let ((newobj nil)) (load-port-info newobj (quote nil)) (init-mus-color newobj (quote nil)) (set-extra-pairs newobj (quote nil)) (set-patch-pairs newobj (quote nil)) (set-tonalite newobj nil) newobj) nil nil (pairlis (quote (scale microplay approx fontsize staff cmnpref deltapict outport inport zoom notechancolor? grillestep mode winsize winpos palette-mode obj-mode show-stems player)) (list nil nil 2 24 (quote g) (let ((newobj (make-instance (quote edition-values)))) (setf (paper-size newobj) (om-make-point 600 800)) (setf (top-margin newobj) 2) (setf (left-margin newobj) 1) (setf (right-margin newobj) 1) (setf (bottom-margin newobj) 1) (setf (orientation newobj) nil) (setf (scale newobj) nil) (setf (system-space newobj) (quote (1))) (setf (line-space newobj) 1) (setf (title newobj) nil) (setf (show-title? newobj) nil) (setf (show-page? newobj) nil) (setf (sheet-id newobj) nil) (setf (page-mode newobj) nil) newobj) (om-make-point 0 0) 0 0 1 nil 1000 0 (om-make-point 370 280) (om-make-point 40 10) 0 1 (quote t) (quote :midishare))) t nil nil nil))) (quote ((3 0 4 0 nil 0) (2 0 4 1 nil 0) (0 0 4 9 nil 0) (4 0 5 0 nil 0))) (list (let ((newpict (make-instance (quote patch-picture) :name "superVP" :source (quote |OM-SuperVP|) :pict-pathname nil :thepict (om-get-picture "superVP" (quote |OM-SuperVP|)) :storemode :external :extraobjs nil))) (setf (pict-pos newpict) (om-make-point 46 39)) (setf (pict-size newpict) (om-make-point 63 57)) newpict)) 6.0011))
