; OM File Header - Saved 2009/06/15 16:37:19
; (6.0011 :patc (om-make-point 271 51) (om-make-point 253 239) (om-make-point 918 615) "" 183 0 nil "2009/06/15 16:37:19")
; End File Header
(in-package :om)(load-lib-for (quote ("OM-SuperVP")))(setf *om-current-persistent* (om-load-patch1 "03-transient-detection" (quote ((om-load-boxcall (quote bastype) "aux" (quote t) (quote nil) (om-make-point 329 163) (om-make-point 25 28) 2.0 "2.0" nil) (om-load-boxcall (quote genfun) "TRANSIENT-DETECTION1" (quote transient-detection) (quote ((om-load-inputfun (quote input-funbox) "no documentation" "SELF" nil) (om-load-inputfun (quote input-funbox) "no documentation" "TRESHOLD" 2.0) (om-load-inputfun (quote input-funbox) "no documentation" "MINFREQ" 0.0) (om-load-inputfun (quote input-funbox) "no documentation" "MAXFREQ" 22050.0) (om-load-inputfun (quote input-funbox) "no documentation" "MINOFFSET" 0.02) (om-load-inputfun (quote input-funbox) "no documentation" "WINDOWSIZE" 4096) (om-load-inputfun (quote input-funbox) "no documentation" "FFTSIZE" 4096) (om-load-inputfunmenu1 (quote input-funmenu) "no documentation" "STEP-OVERSAMP" 8 (list (list "1/4" 4) (list "1/8" 8) (list "1/16" 16) (list "1/32" 32))) (om-load-inputfunmenu1 (quote input-funmenu) "no documentation" "WINDOWTYPE" "hanning" (list (list "Blackman" "blackman") (list "Hanning" "hanning") (list "Hamming" "hamming"))) (om-load-inputfun (quote input-keyword) "Choose from this list (:out)" "Keyword input" (quote :out)))) (om-make-point 315 193) nil nil nil nil 1) (om-load-boxcomment "comment1" (om-make-point 301 32) (quote "TRANSIENTS DETECTION") "" (om-make-point 103 44) nil (om-make-color 0 0 0) (om-make-font "Verdana" 14 :family "Verdana" :style (quote (:bold)) :mode (quote nil))) (om-load-boxcomment "comment" (om-make-point 201 178) (quote "TRANSIENT-DETECTION box parameters :$- Detection threshold$- Min frequency$- Max frequency$- Size of the analysis window$- FFT size$- Analysis step (oversamp)$- Analysis window type$- Output file (key argument, press 'k')") "" (om-make-point 3 223) nil (om-make-color 0 0 0) (om-make-font "Verdana" 12 :family "Verdana" :style (quote (:plain)) :mode (quote nil))) (om-load-boxcomment "comment" (om-make-point 142 38) (quote "Create a new SOUND with markers") "" (om-make-point 410 442) nil (om-make-color 0 0 0) (om-make-font "Verdana" 12 :family "Verdana" :style (quote (:plain)) :mode (quote nil))) (om-load-boxcomment "comment" (om-make-point 150 29) (quote "Returns markers onsets") "" (om-make-point 408 358) nil (om-make-color 0 0 0) (om-make-font "Verdana" 12 :family "Verdana" :style (quote (:plain)) :mode (quote nil))) (om-load-editor-box1 "SOUND" (quote sound) (quote ((om-load-inputfun (quote input-funbox) "objs" "SELF" nil) (om-load-inputfun (quote input-funbox) "no documentation" "TRACKNUM" 1) (om-load-inputfun (quote input-funbox) "no documentation" "MARKERS" nil))) (om-make-point 239 417) (om-make-point 161 79) (let ((newobj nil)) (load-port-info newobj (quote nil)) (init-mus-color newobj (quote nil)) (set-extra-pairs newobj (quote nil)) (set-patch-pairs newobj (quote nil)) (set-tonalite newobj nil) newobj) nil nil (pairlis (quote (scale microplay show-stems obj-mode palette-mode winpos winsize mode grillestep notechancolor? zoom inport outport deltapict cmnpref staff fontsize approx player)) (list nil nil (quote t) 1 0 (om-make-point 40 10) (om-make-point 370 280) 0 1000 nil 1 0 0 (om-make-point 0 0) (let ((newobj (make-instance (quote edition-values)))) (setf (paper-size newobj) (om-make-point 600 800)) (setf (top-margin newobj) 2) (setf (left-margin newobj) 1) (setf (right-margin newobj) 1) (setf (bottom-margin newobj) 1) (setf (orientation newobj) nil) (setf (scale newobj) nil) (setf (system-space newobj) (quote (1))) (setf (line-space newobj) 1) (setf (title newobj) nil) (setf (show-title? newobj) nil) (setf (show-page? newobj) nil) (setf (sheet-id newobj) nil) (setf (page-mode newobj) nil) newobj) (quote g) 24 2 (quote :midishare))) t nil nil nil) (om-load-boxcomment "comment" (om-make-point 150 29) (quote "SDIF analysis file") "" (om-make-point 406 273) nil (om-make-color 0 0 0) (om-make-font "Verdana" 12 :family "Verdana" :style (quote (:plain)) :mode (quote nil))) (om-load-boxcomment "comment" (om-make-point 117 54) (quote "Output file will be saved in the default outfiles folder") "" (om-make-point 520 159) nil (om-make-color 0 0 0) (om-make-font "Verdana" 12 :family "Verdana" :style (quote (:plain)) :mode (quote nil))) (om-load-boxcall (quote genfun) "GET-MRK-ONSETS" (quote get-mrk-onsets) (quote ((om-load-inputfun (quote input-funbox) "no documentation" "SELF" nil))) (om-make-point 329 341) nil nil nil nil 1) (om-load-editor-box1 "SDIFFILE" (quote sdiffile) (quote ((om-load-inputfun (quote input-funbox) "objs" "SELF" nil))) (om-make-point 334 263) (om-make-point 70 50) (let ((newobj (make-instance (quote sdiffile)))) newobj) nil nil (pairlis (quote (mode grillestep notechancolor? cmnpref zoom inport outport deltapict winsize winpos palette-mode obj-mode show-stems)) (list 0 1000 nil (let ((newobj (make-instance (quote edition-values)))) (setf (paper-size newobj) (om-make-point 600 800)) (setf (top-margin newobj) 2) (setf (left-margin newobj) 1) (setf (right-margin newobj) 1) (setf (bottom-margin newobj) 1) (setf (orientation newobj) nil) (setf (scale newobj) nil) (setf (system-space newobj) (quote (1))) (setf (line-space newobj) 1) (setf (title newobj) nil) (setf (show-title? newobj) nil) (setf (show-page? newobj) nil) (setf (sheet-id newobj) nil) (setf (page-mode newobj) nil) newobj) 1 0 0 (om-make-point 0 0) (om-make-point 370 280) (om-make-point 40 10) 0 0 (quote t))) nil nil nil nil) (om-load-boxcall (quote bastype) "aux2" (quote t) (quote nil) (om-make-point 386 159) (om-make-point 87 28) "markers.sdif" "\"markers.sdif\"" nil) (om-load-editor-box1 "SOUND" (quote sound) (quote ((om-load-inputfun (quote input-funbox) "objs" "SELF" nil) (om-load-inputfun (quote input-funbox) "no documentation" "TRACKNUM" 1) (om-load-inputfun (quote input-funbox) "no documentation" "MARKERS" nil))) (om-make-point 171 88) (om-make-point 162 66) (let ((newobj (let ((thesound (load-sound (make-pathname :directory (quote (:relative "in-files")) :device :unspecific :name "PianoOriginal" :type "aiff") 1))) (when thesound (setf (markers thesound) (quote nil))) thesound))) (load-port-info newobj (quote nil)) (init-mus-color newobj (quote nil)) (set-extra-pairs newobj (quote nil)) (set-patch-pairs newobj (quote nil)) (set-tonalite newobj nil) newobj) "x" nil (pairlis (quote (scale microplay show-stems obj-mode palette-mode winpos winsize mode grillestep notechancolor? zoom inport outport deltapict cmnpref staff fontsize approx player)) (list nil nil (quote t) 1 0 (om-make-point 40 10) (om-make-point 370 280) 0 1000 nil 1 0 0 (om-make-point 0 0) (let ((newobj (make-instance (quote edition-values)))) (setf (paper-size newobj) (om-make-point 600 800)) (setf (top-margin newobj) 2) (setf (left-margin newobj) 1) (setf (right-margin newobj) 1) (setf (bottom-margin newobj) 1) (setf (orientation newobj) nil) (setf (scale newobj) nil) (setf (system-space newobj) (quote (1))) (setf (line-space newobj) 1) (setf (title newobj) nil) (setf (show-title? newobj) nil) (setf (show-page? newobj) nil) (setf (sheet-id newobj) nil) (setf (page-mode newobj) nil) newobj) (quote g) 24 2 (quote :midishare))) t nil nil nil))) (quote ((12 0 1 0 nil 0) (0 0 1 1 nil 0) (11 0 1 9 nil 0) (12 0 6 0 nil 0) (9 0 6 2 nil 0) (10 0 9 0 nil 0) (1 0 10 0 nil 0))) (list (let ((newpict (make-instance (quote patch-picture) :name "superVP" :source (quote |OM-SuperVP|) :pict-pathname nil :thepict (om-get-picture "superVP" (quote |OM-SuperVP|)) :storemode :external :extraobjs nil))) (setf (pict-pos newpict) (om-make-point 29 49)) (setf (pict-size newpict) (om-make-point 66 57)) newpict)) 6.0011))
